
In a violent, futuristic city where the police have the authority to act as judge, jury and executioner, a cop teams with a trainee to take down a gang that deals the reality-altering drug, SLO-MO.

Genre: Action | Crime | Sci-Fi
IMDB rating: 7.6/10 from 21,304 users
Director: Pete Travis
Stars: Karl Urban, Olivia Thirlby and Lena Headey
Release Name: Dredd 2012 HDRiP XViD AC3-sC0rp
Size: 1.37 GiB
Video: XviD | 720 × 272 | 1 601 Kbps | 29.970 fps
Audio: Dolby AC3 48000Hz 6ch 448 Kbps | English
Subs: N/A
Runtime: 1h 35mn
IMDB link: http://www.imdb.com/title/tt1922777/
Source: Canrel (Thanks)
NOTE: CROPPED =@=sC0rp=@=

[spoiler=MediaInfo:]General
[font=Courier]Complete name                  : Dredd 2012 HDRiP XViD AC3-sC0rp
Format                         : AVI
Format/Info                    : Audio Video Interleave
File size                      : 1.37 GiB
Duration                       : 1h 35mn
Overall bit rate               : 2 060 Kbps
Movie name                     : Dredd 2012 HDRiP XViD AC3-sC0rp
Director                       : sC0rp
Writing application            : VirtualDub build 32842/release
Writing library                : VirtualDub build 32842/release

Video
ID                             : 0
Format                         : MPEG-4 Visual
Format profile                 : Advanced Simple@L5
Format settings, BVOP          : 4
Format settings, QPel          : No
Format settings, GMC           : No warppoints
Format settings, Matrix        : Default (H.263)
Muxing mode                    : Packed bitstream
Codec ID                       : XVID
Codec ID/Hint                  : XviD
Duration                       : 1h 35mn
Bit rate                       : 1 601 Kbps
Width                          : 720 pixels
Height                         : 272 pixels
Display aspect ratio           : 2.647
Frame rate                     : 29.970 fps
Color space                    : YUV
Chroma subsampling             : 4:2:0
Bit depth                      : 8 bits
Scan type                      : Progressive
Compression mode               : Lossy
Bits/(Pixel*Frame)             : 0.273
Stream size                    : 1.07 GiB (78%)
Writing library                : XviD 64

Audio
ID                             : 1
Format                         : AC-3
Format/Info                    : Audio Coding 3
Mode extension                 : CM (complete main)
Format settings, Endianness    : Big
Codec ID                       : 2000
Duration                       : 1h 35mn
Bit rate mode                  : Constant
Bit rate                       : 448 Kbps
Channel(s)                     : 6 channels
Channel positions              : Front: L C R, Side: L R, LFE
Sampling rate                  : 48.0 KHz
Bit depth                      : 16 bits
Compression mode               : Lossy
Stream size                    : 306 MiB (22%)
Alignment                      : Aligned on interleaves
Interleave, duration           : 33 ms (1.00 video frame)
Interleave, preload duration   : 512 ms[/font][/spoiler]
                   
[spoiler=Screenshots:][img]http://imgr.us/images/ax54383u4fyl29q87cn.png[/img]

[img]http://imgr.us/images/lpthitxoc3gz6ju3ehu2.png[/img]

[img]http://imgr.us/images/ihzqz5ycbykkokpvld.png[/img][/spoiler]
[b]Greets:[/b]
[i][b]oziman | BONE | ETRG | neon | 4PlayHD | Horrorspoke | TODE | SaM | MYSTiC...[/b][/i]
[i][b]If you appreciate the torrent, why not leave a comment?[/b][/i]